<svg id="Layer_1" data-name="Layer 1" xmlns="http://www.w3.org/2000/svg" viewBox="0 0 208 208"><defs><style>.cls-1{fill:#fff;}.cls-2{fill:#42ade2;}.cls-3{fill:#ffdd67;}.cls-4{fill:#eba352;}</style></defs><title>get in touch</title><path class="cls-1" d="M29.15,78.61a9.33,9.33,0,0,1-2.65,3.94,8.34,8.34,0,0,1-4.29,1.94,11,11,0,0,1-5.48-.7l-5.59-2c-3-1.09-5-2.76-6-5A10.1,10.1,0,0,1,5.25,69c1-2.85,2.6-4.79,4.69-5.8a8.74,8.74,0,0,1,7-.1l.13,0-1.57,4.32-.27-.1a5.19,5.19,0,0,0-2.41-.29,4,4,0,0,0-2.14,1,5.58,5.58,0,0,0-1.53,2.38,5.08,5.08,0,0,0,.1,4.18,5.84,5.84,0,0,0,3.4,2.74l5.72,2.08a6,6,0,0,0,4.39.09,5,5,0,0,0,2.83-3.18,4.66,4.66,0,0,0,0-4,5,5,0,0,0-2.79-2.26L22.5,70l-2,5.52-3.72-1.36,3.58-9.83,11.9,4.33-1.48,4-2.23-.81-.21.6a5.38,5.38,0,0,1,.92,1.18,4.13,4.13,0,0,1,.5,1.94A7.86,7.86,0,0,1,29.15,78.61Z"/><path class="cls-1" d="M40.07,56.79,22,39.85,32.89,28.24,36,31.15l-7.69,8.2,4.3,4,7-7.48,3.1,2.9-7,7.49,4.46,4.18L48,42.12,51.1,45Z"/><path class="cls-1" d="M67.79,34.65,59.41,15.92l-6.58,3L51.09,15,68.53,7.19l1.73,3.88L63.67,14l8.38,18.73Z"/><path class="cls-1" d="M111.9,27.69,116,3.28l4.6.77-4.1,24.42Z"/><path class="cls-1" d="M130.78,32.2l12.14-21.57L150.66,15l-6.3,21.21.55.32,10.59-18.8,4,2.25L147.36,41.54l-7.74-4.36L145.92,16l-.55-.31-10.59,18.8Z"/><path class="cls-1" d="M171.87,73l19-7.7-2.71-6.69L192.11,57l7.17,17.7-3.94,1.59-2.71-6.69-19,7.71Z"/><path class="cls-1" d="M177.81,106.39A10.52,10.52,0,0,1,180.6,99q2.66-2.69,7.42-2.53l5.94.18c3.18.09,5.6,1.09,7.25,3a10.42,10.42,0,0,1,2.34,7.5,10.45,10.45,0,0,1-2.79,7.35c-1.76,1.78-4.24,2.63-7.42,2.53l-5.94-.18q-4.77-.15-7.25-3A10.51,10.51,0,0,1,177.81,106.39Zm4.18.12a5.32,5.32,0,0,0,1.39,4.11,5.65,5.65,0,0,0,4,1.58l6.22.19a5.63,5.63,0,0,0,4.11-1.33A6.16,6.16,0,0,0,198,103a5.58,5.58,0,0,0-4-1.59l-6.22-.19a5.59,5.59,0,0,0-4.11,1.34A5.37,5.37,0,0,0,182,106.51Z"/><path class="cls-1" d="M169.82,138.17a11.3,11.3,0,0,1,3.33-4.17,7.72,7.72,0,0,1,4.33-1.55,10,10,0,0,1,4.9,1.16l14.36,7.18L194.66,145l-14.49-7.24a4.9,4.9,0,0,0-3.78-.44,5.95,5.95,0,0,0-3.33,6.67,4.88,4.88,0,0,0,2.62,2.76L190.16,154l-2.08,4.17L173.71,151a10,10,0,0,1-3.86-3.22,7.71,7.71,0,0,1-1.36-4.4A11.19,11.19,0,0,1,169.82,138.17Z"/><path class="cls-1" d="M149.33,163.6A10.08,10.08,0,0,1,156.6,161q3.71.28,6.72,4l3.75,4.61q3,3.71,2.55,7.39a10.09,10.09,0,0,1-4,6.58q-3.54,2.9-7.05,2.53a9.24,9.24,0,0,1-6.25-3.74l-.13-.16,3.56-2.9.22.27a5.38,5.38,0,0,0,3.23,2,4.63,4.63,0,0,0,3.78-1.26,5,5,0,0,0,2.06-3.64,5.83,5.83,0,0,0-1.51-4.1l-3.84-4.72a5.87,5.87,0,0,0-3.7-2.3,5,5,0,0,0-4,1.26,4.65,4.65,0,0,0-2,3.47,5.31,5.31,0,0,0,1.32,3.55l.4.5-3.56,2.9-.32-.38a9.26,9.26,0,0,1-2.38-6.89Q145.8,166.49,149.33,163.6Z"/><path class="cls-1" d="M130.2,176l6.39,23.92-4.51,1.21-2.64-9.88-8.88,2.37,2.63,9.88-4.51,1.2L112.3,180.8l4.51-1.2,2.65,9.94,8.89-2.37-2.66-9.94Z"/><path class="cls-2" d="M85.34,124a10.81,10.81,0,0,1-1.45-.41,12.08,12.08,0,0,1-1.4-.57,15.46,15.46,0,0,1-2.63-1.54,14.88,14.88,0,0,1-4.11-4.57A13.7,13.7,0,0,1,74,111.06a13.91,13.91,0,0,1,.11-3,12.35,12.35,0,0,1,.3-1.47,11.8,11.8,0,0,1,.47-1.42l.13,1.47c0,.48.1,1,.16,1.43a27.12,27.12,0,0,0,.51,2.77,19.4,19.4,0,0,0,2,5.07A21.72,21.72,0,0,0,81,120.23c.66.67,1.36,1.31,2.09,1.94.36.31.74.62,1.12.93Z"/><path class="cls-2" d="M85.05,127.83a9.61,9.61,0,0,1-2.25.64,11.61,11.61,0,0,1-2.36.13,10.84,10.84,0,0,1-4.62-1.3,10.31,10.31,0,0,1-3.58-3.2,9.87,9.87,0,0,1-1.1-2.08c-.13-.36-.25-.73-.35-1.11a7.14,7.14,0,0,1-.19-1.14l.76.86c.24.28.48.56.73.83.5.53,1,1,1.51,1.51a17.15,17.15,0,0,0,3.3,2.38,19.23,19.23,0,0,0,3.83,1.52c.67.2,1.37.36,2.09.51l1.1.22C84.29,127.67,84.66,127.74,85.05,127.83Z"/><path class="cls-2" d="M108.66,77a12.67,12.67,0,0,1,1.47.49,13.71,13.71,0,0,1,1.4.65,16.1,16.1,0,0,1,2.62,1.7,14.76,14.76,0,0,1,4,4.8,13.58,13.58,0,0,1,1.5,6,13.87,13.87,0,0,1-.29,3,14.25,14.25,0,0,1-.39,1.46,12,12,0,0,1-.56,1.4L118.32,95c0-.49,0-1-.08-1.45a25.81,25.81,0,0,0-.36-2.8,19.17,19.17,0,0,0-1.76-5.19A21.49,21.49,0,0,0,112.93,81c-.63-.71-1.32-1.38-2-2-.36-.34-.73-.67-1.1-1Z"/><path class="cls-2" d="M117.83,76.48a8.31,8.31,0,0,1,1.09.39,9.86,9.86,0,0,1,1,.53,10.68,10.68,0,0,1,1.86,1.36,10.39,10.39,0,0,1,2.63,3.81,9.31,9.31,0,0,1,.09,6.76,7.89,7.89,0,0,1-.46,1,6.88,6.88,0,0,1-.59,1c0-.38,0-.74,0-1.1s0-.71,0-1.06c0-.7-.07-1.37-.15-2a15.59,15.59,0,0,0-.94-3.79,17.65,17.65,0,0,0-1.89-3.48c-.38-.56-.8-1.11-1.24-1.67l-.68-.84C118.3,77.06,118.07,76.78,117.83,76.48Z"/><path class="cls-3" d="M79,92.08a4.09,4.09,0,0,0-1.86,5.51l13.2,27.57,7.31-3.49L84.45,94.1A4.09,4.09,0,0,0,79,92.08Z"/><path class="cls-3" d="M113.67,114l7.79-3.71-15-31.45a4.31,4.31,0,0,0-5.73-2h0a4.32,4.32,0,0,0-2,5.78Z"/><path class="cls-4" d="M100.68,76.84h0a4.14,4.14,0,0,0-.65.39,4.31,4.31,0,0,1,5,2.27l15,31.45,1.39-.66-15-31.45A4.31,4.31,0,0,0,100.68,76.84Z"/><path class="cls-3" d="M97.64,121.67l8-3.83L90.3,85.75a4.47,4.47,0,0,0-5.94-2.15h0a4.47,4.47,0,0,0-2.06,6Z"/><path class="cls-4" d="M84.36,83.6h0a4.37,4.37,0,0,0-.65.4,4.47,4.47,0,0,1,5.22,2.4l9.56,20,2.35,1.36-10.52-22A4.47,4.47,0,0,0,84.36,83.6Z"/><path class="cls-3" d="M104.41,115.24l8-3.83L97.07,79.32a4.46,4.46,0,0,0-5.94-2.15h0a4.47,4.47,0,0,0-2.07,6Z"/><path class="cls-4" d="M91.13,77.17h0a4,4,0,0,0-.66.39A4.49,4.49,0,0,1,95.69,80l10.8,22.57,2.35,1.36L97.07,79.32A4.46,4.46,0,0,0,91.13,77.17Z"/><path class="cls-4" d="M79,92.08a4.25,4.25,0,0,0-.66.39,4.13,4.13,0,0,1,4.73,2.29l7.84,16.39,2.35,1.35-8.8-18.4A4.09,4.09,0,0,0,79,92.08Z"/><path class="cls-3" d="M132.12,89c-2.84-2.18-7.49.21-9.76,7.78-1.6,5.29-1.76,6.78-5.13,8.38l-1.85-3.86S85.69,115.65,86.81,118c0,0,3.59,11.07,9.61,16.24,9,7.7,30-.55,31-20.47C127.93,102,135.22,91.4,132.12,89Z"/><path class="cls-4" d="M132.12,89a3.65,3.65,0,0,0-1.79-.74,3.42,3.42,0,0,1,.4.26c3.11,2.38-.09,8-1.91,13-1.46,4-2.67,8.08-2.47,12,.84,17.26-16.56,25.57-27,22.45,10.25,4.34,29.31-3.92,28.43-22-.19-4,1-7.82,2.48-12C132,97,135.22,91.4,132.12,89Z"/><path class="cls-4" d="M118.23,104.64c-6.46.71-16.06,10-9.34,20.2-4.89-10.22,3.15-17.19,8.25-19.63C117.75,104.92,118.23,104.64,118.23,104.64Z"/></svg>